<svg xmlns="http://www.w3.org/2000/svg" width="1280" height="884" fill="none"><g clip-path="url(#a)"><path fill="#fff" d="M0 0h1280v884H0z"/><g filter="url(#b)" opacity=".65"><path fill="url(#c)" d="M-78.14 206.724c-62.115-50.874-59.063-120.561-49.772-149.046C-115.17 2.83-73.494-12.87-54.249-13.863c25.882 6.293 96.16 7.949 170.222-35.771 92.576-54.65 204.067-50.676 232.935-65.58 28.867-14.905 174.203-34.778 218.998 22.853 44.795 57.631-45.791 120.23-93.572 130.167-47.782 9.936-101.536 44.713-173.208 129.173-57.338 67.567-122.772 99.032-148.322 106.319C46.889 289.991-45.29 235.871-78.139 206.724Z"/></g><g filter="url(#d)"><path fill="url(#e)" d="M889.861 843.724c-62.116-50.874-59.064-120.561-49.773-149.045 12.742-54.849 54.418-70.549 73.663-71.542 25.882 6.293 96.159 7.949 170.219-35.771 92.58-54.65 204.07-50.676 232.94-65.58 28.87-14.905 174.2-34.778 219 22.853 44.79 57.631-45.79 120.23-93.58 130.167-47.78 9.936-101.53 44.713-173.2 129.173-57.34 67.567-122.78 99.032-148.33 106.319-105.91 16.693-198.09-37.427-230.939-66.574Z"/></g></g><defs><linearGradient id="c" x1="467.255" x2="-86.656" y1="-171.739" y2="76.097" gradientUnits="userSpaceOnUse"><stop stop-color="#72E5FE"/><stop offset=".549" stop-color="#03EF62" stop-opacity=".64"/><stop offset=".984" stop-color="#FFEC3C"/></linearGradient><linearGradient id="e" x1="1381.55" x2="999.779" y1="538.647" y2="811.59" gradientUnits="userSpaceOnUse"><stop stop-color="#9760FF"/><stop offset=".495" stop-color="#FF9E34" stop-opacity=".8"/><stop offset="1" stop-color="#FFD525" stop-opacity=".7"/></linearGradient><filter id="b" width="1539.2" height="1233.63" x="-546.101" y="-544.101" color-interpolation-filters="sRGB" filterUnits="userSpaceOnUse"><feFlood flood-opacity="0" result="BackgroundImageFix"/><feBlend in="SourceGraphic" in2="BackgroundImageFix" result="shape"/><feGaussianBlur result="effect1_foregroundBlur_4450_69289" stdDeviation="206.551"/></filter><filter id="d" width="1580.31" height="1274.74" x="401.346" y="72.346" color-interpolation-filters="sRGB" filterUnits="userSpaceOnUse"><feFlood flood-opacity="0" result="BackgroundImageFix"/><feBlend in="SourceGraphic" in2="BackgroundImageFix" result="shape"/><feGaussianBlur result="effect1_foregroundBlur_4450_69289" stdDeviation="216.827"/></filter><clipPath id="a"><path fill="#fff" d="M0 0h1280v884H0z"/></clipPath></defs></svg>
