<svg width="694" height="270" viewBox="0 0 694 270" fill="none" xmlns="http://www.w3.org/2000/svg">
<g clip-path="url(#clip0_52_363)">
<rect x="208.188" y="31.9883" width="33.1357" height="31.6436" rx="4.12155" transform="rotate(35.5653 208.188 31.9883)" fill="#F98D3D"/>
<circle cx="212.874" cy="30.6632" r="18.3656" stroke="#F98D3D" stroke-width="2.94396"/>
<line x1="217.665" y1="69.9467" x2="249.556" y2="65.5479" stroke="#F98D3D" stroke-width="5.88792" stroke-linecap="round"/>
<line x1="248.632" y1="62.9671" x2="253.556" y2="68.271" stroke="#F98D3D" stroke-width="4.12155" stroke-linecap="round"/>
<path d="M294.832 103.565C300.543 99.6475 303.024 93.337 300.371 89.4703C297.719 85.6036 290.939 85.6449 285.227 89.5625C279.516 93.4802 277.036 99.7907 279.688 103.657C282.34 107.524 289.12 107.483 294.832 103.565Z" fill="#007C3B"/>
<path d="M237.318 100.451C235.376 97.1217 234.144 93.326 234.876 89.5635C235.586 85.9009 239.149 83.0818 242.856 83.437C245.586 83.7033 247.573 85.3238 249.227 87.266C251.114 89.4747 253.633 92.9708 255.076 95.3792C256.596 97.932 256.541 101.151 254.843 103.592C252.834 106.467 249.049 107.976 245.609 107.288C242.168 106.589 239.371 103.959 237.318 100.451Z" fill="#8FB400"/>
<path d="M259.257 122.196C256.072 116.347 253.309 110.187 251.877 103.683C250.445 97.1792 250.689 89.4434 253.741 83.5277C256.794 77.6121 263.875 73.5499 270.534 73.6165C277.193 73.6831 282.088 78.8884 283.442 85.4034C285.728 96.4578 282.243 109.91 276.461 121.918C270.656 121.918 265.395 122.196 259.257 122.196Z" fill="#30A187"/>
<path d="M289.512 85.0384C289.601 84.3614 289.579 83.1183 289.579 82.408C289.579 79.7665 290.988 77.9241 293.719 78.5456C294.573 78.7454 295.206 79.3891 295.561 79.8442C296.371 80.8874 296.715 82.2415 296.715 83.7509C296.715 85.2826 296.038 86.8808 295.628 87.5578C294.573 89.3225 292.653 90.2215 291.111 89.489C289.568 88.7787 289.279 86.8253 289.512 85.0384Z" fill="#AFD818"/>
<path d="M265.317 71.1868C265.317 71.1868 264.862 69.7772 264.74 68.745C264.662 68.1346 264.64 66.6696 264.829 66.0813C265.628 63.5286 267.725 63.8727 268.735 65.0824C270.389 67.0691 270.267 71.3532 270.267 71.3532C270.267 71.3532 271.843 69.5885 272.676 68.9448C273.308 68.4565 274.074 68.1013 274.862 67.957C277.626 67.4576 279.856 69.6551 277.57 72.108C275.894 73.8949 274.052 74.6274 271.532 75.3155C272.664 75.2933 274.207 76.8804 274.718 77.8127C276.05 80.2877 273.508 82.2744 271.211 80.6651C270.156 79.9215 269.313 78.7561 268.969 77.7683C268.902 77.5574 268.858 79.3443 268.203 80.9537C267.714 82.1523 266.571 83.2289 265.284 83.3954C263.708 83.6063 262.731 81.6085 263.164 80.0769C263.752 77.9792 266.149 75.9037 265.916 75.8815C265.916 75.8815 263.641 76.0591 262.409 75.937C261.643 75.8593 260.855 75.7594 260.189 75.4043C259.035 74.7828 258.436 73.9615 258.636 72.8294C258.88 71.3865 260.045 70.5985 261.466 70.3765C263.142 70.0991 265.317 71.1868 265.317 71.1868Z" fill="#FE7E6E"/>
<path d="M266.56 72.4415C266.56 72.4415 266.072 69.7999 266.893 68.0019C267.182 67.3804 267.77 66.9254 268.458 66.8699C270.412 66.6923 270.334 69.8221 270.145 70.7544C269.99 71.5092 269.946 71.3982 269.701 72.2639C270.179 71.5536 270.389 71.4204 270.967 70.8876C271.688 70.2217 273.098 69.6335 274.074 69.5891C274.951 69.5447 275.684 69.7112 276.005 70.5325C276.449 71.6201 275.883 72.7189 273.819 73.6623L270.167 74.8832C271 75.1717 272.099 76.1817 272.021 77.1029C271.932 78.0685 271.288 78.5347 270.523 78.3238C269.546 78.0574 268.58 76.9365 268.136 75.9709C268.136 77.2361 268.037 79.023 267.071 80.2994C266.605 80.9098 265.406 81.0874 264.818 80.5768C264.13 79.9886 264.23 78.9453 264.552 78.2905C264.862 77.6579 265.406 77.1029 265.883 76.5924C266.438 76.0042 267.237 75.205 267.237 75.205C267.237 75.205 263.653 75.1052 262.532 73.8732C261.999 73.285 262.021 72.5302 262.587 72.1085C263.22 71.6423 263.985 71.7977 264.873 72.0086C265.506 72.1307 266.56 72.4415 266.56 72.4415Z" fill="#FE5E36"/>
<path d="M266.061 73.5504C265.495 73.2285 265.373 72.3517 265.817 71.8744C266.261 71.4083 266.815 71.6525 267.359 71.9743C267.359 71.2862 267.626 70.5537 268.125 70.3539C268.625 70.1541 269.124 70.4649 269.202 71.0309C269.279 71.5637 269.091 72.4072 268.902 72.8178C269.235 72.4072 270.245 72.1075 270.733 72.3406C271.222 72.5737 271.344 72.9843 271.144 73.4727C270.944 73.961 269.99 74.4938 269.479 74.3162C269.934 74.6158 270.389 74.9377 270.7 75.3817C271.011 75.8256 271.144 76.436 270.9 76.9133C270.645 77.3905 269.768 77.3572 269.368 77.0021C268.813 76.4915 268.658 76.1919 268.281 75.537C268.358 76.1919 268.358 76.4027 268.203 76.769C268.047 77.1353 267.592 77.3461 267.204 77.224C266.827 77.102 266.56 76.6802 266.638 76.2918C266.705 75.9255 266.849 75.6369 267.004 75.2818C266.527 75.5703 265.584 75.304 265.428 74.7823C265.239 74.2496 265.561 73.8056 266.061 73.5504Z" fill="#FAE04C"/>
<circle cx="268.181" cy="73.9727" r="0.554938" fill="#00236A"/>
<rect x="247.76" y="118.701" width="39.6226" height="11.8757" rx="1.50709" fill="#4E85DD"/>
<path d="M251.242 129.608C251.191 129.302 251.427 129.023 251.737 129.023H283.136C283.443 129.023 283.679 129.296 283.633 129.6L280.565 150.016C280.528 150.262 280.317 150.444 280.068 150.444H255.122C254.877 150.444 254.667 150.266 254.627 150.024L251.242 129.608Z" fill="#4E85DD"/>
<path d="M241.621 151.791C247.02 139.628 254.239 127.725 265.231 120.181C267.183 118.88 269.329 117.644 271.67 117.839C272.776 117.904 274.077 118.555 274.207 119.66C274.337 120.766 273.296 121.677 272.451 122.457C273.687 121.221 275.573 120.376 277.264 121.026C278.109 121.351 278.955 122.327 279.15 123.172C279.28 123.823 279.02 124.473 278.63 124.929C278.24 125.384 277.719 125.839 277.264 126.229C278.044 125.839 278.76 125.384 279.67 125.254C280.516 125.124 281.492 125.319 282.012 125.969C282.727 126.815 282.532 128.116 281.947 129.026C281.362 129.937 280.776 130.392 279.736 131.303C280.906 130.457 282.467 130.262 283.248 131.368C284.028 132.473 283.768 133.449 282.988 134.62C282.207 135.79 279.931 137.872 278.76 138.977C272.126 144.961 266.727 150.62 261.979 158.165C261.004 159.661 260.939 161.547 259.182 162.002C257.687 162.392 254.695 160.636 253.264 160.051C248.776 158.1 244.028 156.018 241.621 151.791Z" fill="#FFC7AE"/>
<path d="M204.939 15.3344C209.557 14.2938 214.435 14.2287 219.118 15.2044C220.159 15.3995 221.134 15.6596 221.98 16.245C222.825 16.8304 223.476 17.806 223.476 18.7816C223.476 20.6028 221.59 21.7085 219.833 22.1638C215.606 23.3345 210.858 22.9443 206.695 24.3752C201.882 26.0012 200.061 29.4484 197.069 33.2208C195.768 34.9119 193.232 40.1802 191.605 41.6111C190.37 42.7168 188.614 40.5705 186.923 40.6355C185.231 40.6355 183.735 39.5298 182.435 38.4241C180.939 37.2534 179.508 36.0176 178.012 34.8468C177.036 34.0663 175.996 33.0907 175.931 31.8549C175.865 30.6191 176.711 29.6435 177.557 28.7329C181.719 24.18 186.077 19.6922 190.565 15.3995C194.337 11.7572 198.5 7.20427 203.313 5.31807C207.411 3.69204 211.248 4.34245 215.541 5.25303C221.98 6.74495 224.972 7.72499 231.606 10.1311C232.813 10.6651 233.161 10.8609 233.466 11.3184C234.119 12.2985 233.492 13.1881 232.647 13.7084C233.622 14.2938 234.338 14.4239 234.858 15.5296C235.703 17.2206 234.208 18.6515 232.516 18.8467C231.476 18.9767 228.484 18.7816 227.248 18.7166C221.264 18.3914 219.768 18.4564 213.98 17.4158" fill="#FFC7AE"/>
<path d="M107.376 153.156C115.506 130.262 122.336 109.318 132.742 87.4646C142.759 66.4562 155.051 48.4398 170.661 31.1388C171.832 29.903 173.653 29.5128 175.149 30.2933C181.393 33.4803 187.897 35.9519 193.361 39.3991C195.052 40.4397 195.767 42.6511 194.792 44.3422C169.035 87.0093 156.157 121.936 140.872 162.587C129.035 159.79 119.149 156.408 107.376 153.156Z" fill="#69A6E2"/>
<path d="M151.751 129L129.463 121.49L121.64 144.707L143.928 152.217L151.751 129Z" fill="#FFC7AE"/>
<path d="M171.442 187.043C166.044 177.612 171.767 167.075 163.702 159.856C159.865 156.409 152.971 151.661 148.027 150.035C139.962 147.368 131.439 142.309 123.049 140.683C117.781 139.708 105.385 136.181 100.181 137.416C94.5228 138.717 87.5534 140.441 83.5208 144.603C80.0736 148.181 82.2141 156.69 83.5208 160.284C84.8275 163.877 88.0973 167.942 88.7477 171.064C89.3981 174.381 86.1949 182.186 85.1542 185.438C74.2923 219.715 64.6179 245.451 60 282.135C101.301 282.135 146.618 282.135 186.098 282.135C184.464 245.547 182.434 206.295 171.442 187.043Z" fill="#ADD6F7"/>
<path d="M132.027 118.425C129.88 123.953 129.62 127.401 123.246 130.978C117.717 134.1 112.059 132.539 106.856 128.896C101.652 125.254 98.3352 119.335 97.0343 113.091C95.7335 106.847 96.3189 100.408 97.7498 93.9043C91.5058 98.3921 85.0668 98.5872 79.3431 93.3839C73.6195 88.1806 70.3024 79.8554 72.5138 72.5057C74.6601 65.091 80.3187 58.782 87.4733 55.8551C91.831 54.034 97.5547 53.6437 102.043 55.0746C109.522 57.4812 112.059 64.8959 109.913 72.4407C120.384 61.969 133.392 57.8714 149.393 60.2129C154.531 60.9934 160.58 63.6601 164.677 67.2373C167.799 69.9691 168.84 74.7821 167.864 78.8147C166.889 82.8473 163.702 85.9692 160.58 88.766C152.45 96.0506 143.799 103.01 133.978 107.888" fill="#E95A91"/>
<path d="M109.783 73.2647C117.588 66.1104 114.011 48.2243 91.2462 56.6797" stroke="#E95A91" stroke-width="1.17758" stroke-miterlimit="10" stroke-linecap="round"/>
<path d="M97.7505 113.591C94.8494 123.773 111.754 146.545 126.717 127.418" stroke="#E95A91" stroke-width="1.17758" stroke-miterlimit="10" stroke-linecap="round"/>
<path d="M80.8261 98.2914C88.4918 105.595 106.095 100.816 96.1199 78.6755" stroke="#E95A91" stroke-width="1.17758" stroke-miterlimit="10" stroke-linecap="round"/>
<path d="M270.11 123.347C264.907 125.949 260.354 130.827 257.76 135.735" stroke="#E95A91" stroke-width="1.17758" stroke-miterlimit="10" stroke-linecap="round"/>
<path d="M221.226 16.0239C215.667 14.3113 209.005 14.694 203.739 16.4518" stroke="#E95A91" stroke-width="1.17758" stroke-miterlimit="10" stroke-linecap="round"/>
<path d="M230.435 12.7772C222.686 10.6651 209.618 5.11154 202.431 9.68503" stroke="#E95A91" stroke-width="1.17758" stroke-miterlimit="10" stroke-linecap="round"/>
<path d="M274.981 127.111C269.777 129.712 265.232 134.188 262.305 138.957" stroke="#E95A91" stroke-width="1.17758" stroke-miterlimit="10" stroke-linecap="round"/>
<path d="M278.34 132.314C273.282 134.546 269.785 138.307 266.858 142.21" stroke="#E95A91" stroke-width="1.17758" stroke-miterlimit="10" stroke-linecap="round"/>
<path d="M166.594 84.7143C176.832 78.4989 165.72 62.5391 145.589 60.6469" stroke="#E95A91" stroke-width="1.33213" stroke-miterlimit="10" stroke-linecap="round"/>
<path d="M130.432 105.271C130.432 105.271 127.296 100.436 121.481 101.155C118.149 101.547 115.732 102.919 114.098 105.859C112.465 108.799 112.334 112.327 113.053 115.594C113.771 119.057 116.189 121.932 119.26 123.761C122.33 125.59 126.577 125.264 129.06 123.304C135.398 129.641 139.775 132.712 149.183 135.129C152.32 135.913 156.37 136.11 160.029 135.129C161.532 134.737 164.864 132.843 167.151 128.269C168.588 125.329 169.633 121.997 170.417 118.796C167.477 117.816 164.211 115.855 161.597 113.242C165.191 113.634 168.262 113.569 171.724 113.569C171.724 109.975 171.071 109.126 174.076 106.643C175.383 105.598 176.102 105.01 177.082 103.899C177.735 103.18 178.192 102.266 177.931 101.351C177.474 99.7829 175.514 99.6522 174.076 98.9989C171.528 97.8228 170.352 96.9734 169.829 94.164C169.307 91.4199 167.935 85.6704 166.955 83.057C164.668 77.1114 162.839 74.2366 159.441 71.2312C156.109 68.2258 154.541 67.2457 150.359 65.547C152.581 71.4272 152.32 76.5887 152.32 81.4889C152.32 87.3038 150.686 91.0932 147.419 95.3401C145.263 98.0842 140.82 101.612 137.684 103.18C134.548 104.748 130.432 105.271 130.432 105.271Z" fill="#FFC7AE"/>
<path d="M116.678 167.336C122.012 156.864 134.76 155.368 146.207 157.84C154.597 159.596 160.906 166.23 167.476 171.628C178.988 181.124 191.151 189.71 203.248 198.816C204.224 199.531 205.655 199.271 206.24 198.23C215.801 181.905 225.362 166.62 235.964 151.01C237.005 149.449 239.021 148.929 240.712 149.71C248.322 153.287 255.737 156.994 262.891 160.311C264.062 160.832 264.582 162.263 264.062 163.433C255.932 182.425 250.143 194.783 240.452 213.385C235.704 222.556 228.094 238.686 218.338 241.873C213.005 243.629 203.509 241.418 198.175 239.727C192.842 237.971 183.671 232.572 178.858 229.71C159.801 218.653 144.906 211.499 128.126 197.19C120.841 190.946 111.475 177.547 116.678 167.336Z" fill="#69A6E2"/>
<path d="M126.6 114.717C125.709 111.399 122.597 109.052 119.518 109.355" stroke="#00236A" stroke-width="1.33213" stroke-miterlimit="10" stroke-linecap="round"/>
<path d="M129.356 123.839C133.958 130.999 141.581 134.468 150.112 135.147" stroke="#E95A91" stroke-width="1.33213" stroke-miterlimit="10" stroke-linecap="round"/>
<circle cx="160.97" cy="92.6881" r="2.74178" transform="rotate(24.0178 160.97 92.6881)" fill="white"/>
<path d="M163.313 85.9029C162.112 85.4567 160.596 85.4727 159.272 85.9114C157.948 86.3502 156.844 87.2405 156.368 88.2392" stroke="#E95A91" stroke-width="1.99819" stroke-miterlimit="10" stroke-linecap="round"/>
<path d="M161.229 94.8002C160.312 94.3916 159.936 93.2344 160.39 92.2156C160.844 91.1967 161.956 90.702 162.873 91.1106C163.79 91.5192 164.165 92.6764 163.711 93.6953C163.257 94.7141 162.146 95.2088 161.229 94.8002Z" fill="#00236A"/>
<path d="M163.981 91.8235C163.474 90.9511 162.439 90.2781 161.369 90.1689C160.299 90.0597 159.236 90.4805 158.734 91.2419" stroke="#00236A" stroke-width="0.666063" stroke-miterlimit="10" stroke-linecap="round"/>
<path d="M395.392 155.125C427.449 166.61 434.593 202.82 421.526 243.981" stroke="#00236A" stroke-width="0.823676" stroke-miterlimit="10" stroke-linecap="round"/>
<path d="M522.469 217.128L502.28 214.253C501.104 213.926 499.994 213.6 499.275 213.273C497.119 212.424 495.485 210.072 493.199 209.614C490.651 209.092 487.906 211.248 485.75 212.75C483.594 214.188 481.83 216.213 480.066 218.173C480.85 222.747 481.504 226.34 482.353 229.934C482.941 232.416 483.856 235.095 486.012 236.402C488.102 237.643 495.289 236.206 498.426 235.814L519.333 238.754L522.469 217.128Z" fill="#FFBA9B"/>
<path d="M470.989 256.991C465.827 257.906 460.47 255.684 456.55 252.156C452.63 248.628 449.885 243.989 447.468 239.35C444.985 234.712 442.699 229.877 439.366 225.826C434.793 220.207 428.521 216.287 423.425 211.125C420.027 207.663 417.087 203.35 416.956 198.516C416.76 190.871 424.143 184.599 431.722 183.946C439.301 183.292 446.684 187.082 452.434 191.982C460.927 199.234 467.069 209.231 469.682 220.076C471.969 229.746 471.577 240.134 475.562 249.281C476.281 250.915 477.13 252.614 477 254.378C476.869 256.142 475.236 257.971 470.989 256.991Z" fill="#30A187"/>
<path d="M425.577 136.439C427.275 127.618 425.054 118.145 419.696 110.958C415.384 105.208 409.177 100.765 406.695 93.9704C404.8 88.7436 405.584 82.8634 407.609 77.7019C409.635 72.5404 412.967 67.9669 416.168 63.4587C424.989 51.1103 433.809 38.8272 442.629 26.4787C450.012 16.1557 458.114 5.30997 470.005 0.997819C472.618 0.08312 475.493 -0.5049 478.041 0.605806C480.851 1.84718 482.484 4.91796 482.745 7.98873C483.007 11.0595 482.092 14.0649 481.047 16.9397C473.272 38.4351 456.35 56.7945 453.736 79.5313C452.756 88.2863 453.932 97.3679 451.515 105.862C447.856 118.733 436.618 127.814 425.577 136.439Z" fill="#AFD818"/>
<path d="M428.908 174.333C429.431 154.929 439.101 135.916 454.52 124.09C466.738 114.682 481.83 109.978 496.596 105.404C512.277 100.569 527.957 95.6692 543.703 90.8343C545.99 90.1156 548.538 89.4623 550.629 90.573C552.981 91.8144 553.83 94.9505 553.177 97.4986C552.524 100.047 550.694 102.203 548.865 104.097C532.792 120.758 510.251 129.056 488.625 137.223C466.999 145.39 444.589 154.667 428.908 174.333Z" fill="#007C3B"/>
<path d="M404.799 165.774C405.191 150.42 398.658 135.001 387.42 124.613C380.298 118.014 371.543 113.44 363.899 107.43C358.084 102.856 352.988 97.4332 348.741 91.357C347.108 89.0049 345.605 86.5875 343.449 84.6927C340.574 82.1446 336.85 80.8379 333.91 78.3552C328.748 73.9777 326.984 66.8561 325.547 60.1919C324.698 56.4024 324.11 51.8289 326.788 49.0848C328.422 47.3861 331.035 46.8634 333.387 47.1247C335.739 47.3861 337.961 48.3661 340.117 49.3461C349.199 53.4623 358.215 57.8398 367.166 62.2173C378.273 67.6401 389.903 73.5203 396.632 83.8434C400.814 90.2462 402.708 97.7599 405.649 104.816C408.915 112.722 413.619 120.17 415.645 128.533C419.108 141.992 414.992 157.085 404.799 165.774Z" fill="#8FB400"/>
<path d="M370.368 223.335C367.885 224.119 365.076 222.747 363.639 220.591C362.201 218.435 362.005 215.625 362.397 213.012C362.789 210.399 363.769 207.981 364.619 205.498C367.101 198.05 368.212 190.145 367.885 182.37C367.624 175.967 366.513 169.368 368.539 163.292C370.826 156.497 376.64 151.662 382.194 147.154C383.435 146.108 384.742 145.063 386.31 144.54C387.878 144.018 389.708 144.018 390.949 144.998C393.432 146.958 392.582 151.204 394.738 153.557C396.764 155.778 400.292 155.19 403.297 155.321C407.413 155.517 411.399 157.607 413.947 160.809C416.495 164.076 417.606 168.388 416.822 172.504C415.711 178.515 411.007 183.219 406.041 186.747C401.076 190.275 395.522 193.215 391.406 197.723C387.682 201.774 385.395 206.87 382.651 211.575C379.907 216.279 376.444 221.31 370.368 223.335Z" fill="#AFD818"/>
<path d="M505.155 246.594L515.544 206.282C515.674 205.694 516.263 205.368 516.851 205.498L547.689 213.469C548.277 213.6 548.604 214.188 548.473 214.776L538.085 255.088C537.954 255.676 537.366 256.003 536.778 255.872L505.939 247.901C505.351 247.705 505.025 247.117 505.155 246.594Z" fill="#F98D3D"/>
<path d="M522.142 106.123C434.919 129.317 408.785 198.899 413.358 243.328" stroke="#00236A" stroke-width="0.823676" stroke-miterlimit="10" stroke-linecap="round"/>
<path d="M428.712 96.9759C436.879 144.018 397.025 181.586 411.399 243.981" stroke="#00236A" stroke-width="0.823676" stroke-miterlimit="10" stroke-linecap="round"/>
<path d="M353.903 69.8616C445.046 137.811 390.683 181.561 405.057 243.957" stroke="#00236A" stroke-width="0.823676" stroke-miterlimit="10" stroke-linecap="round"/>
<path d="M552.001 65.0267C553.504 67.3788 554.745 71.6909 554.876 73.259C555.072 76.0031 554.876 79.4658 555.072 82.2753C555.202 83.974 555.464 85.6727 556.901 86.6528C557.62 87.1755 558.665 87.3715 559.318 86.7834C559.841 86.3261 559.906 85.5421 559.906 84.8234C560.037 80.1845 560.168 75.415 559.122 70.8415C558.861 69.7308 558.534 68.5548 557.75 67.6401C556.64 66.3987 553.438 65.288 552.001 65.0267Z" fill="#FFD683"/>
<path d="M455.771 207.328C456.227 205.878 456.914 205.437 459.626 204.736C461.524 204.272 463.131 204.398 464.875 204.461C467.022 204.54 469.163 204.752 471.441 204.902C474.256 205.071 477.178 205.978 478.319 207.819C478.831 208.505 478.936 209.309 478.644 209.964C477.622 212.193 473.719 212.384 470.763 212.409C468.612 212.464 466.6 212.39 464.456 212.245C462.446 212.105 460.442 211.832 458.854 211.174C457.132 210.511 455.7 209.258 455.746 207.994C455.622 207.722 455.629 207.523 455.771 207.328Z" fill="#FF9F74"/>
<path d="M455.115 220.905C455.111 219.389 455.616 218.771 457.912 217.328C459.527 216.344 461.046 216.006 462.673 215.57C464.675 215.033 466.712 214.625 468.857 214.119C471.502 213.48 474.463 213.514 476.055 214.949C476.728 215.459 477.06 216.197 476.982 216.908C476.692 219.33 473.149 220.624 470.43 221.491C468.462 222.156 466.584 222.659 464.565 223.131C462.67 223.57 460.741 223.88 459.084 223.703C457.302 223.56 455.615 222.771 455.287 221.548C455.093 221.325 455.042 221.132 455.115 220.905Z" fill="#FF9F74"/>
<path d="M583.427 125.789L580.487 107.56L605.707 95.6038L608.059 120.301L583.427 125.789Z" fill="#FFBA9B"/>
<path d="M559.252 69.9269C556.051 68.5549 552.458 66.2681 549.583 64.2427C546.708 62.152 543.637 58.5585 542.657 55.161C541.677 51.7636 541.612 48.7581 544.16 46.4061C546.773 43.9886 553.046 45.7527 555.202 46.1447C553.699 45.034 553.111 44.1847 553.634 42.7473C554.287 41.1139 556.574 40.7872 558.272 40.6565C560.886 40.5259 562.454 41.2445 565.067 41.2445C568.269 41.1792 571.47 38.5658 574.41 37.2591C578.788 35.299 583.753 34.319 588.457 35.3643C593.162 36.4097 596.69 39.2845 598.258 43.858C605.51 42.6819 613.089 48.1701 616.356 54.769C619.623 61.3679 620.276 70.9069 618.316 78.0285C616.879 83.2554 614.134 86.4568 609.692 89.4623C604.334 93.0557 597.082 92.729 591.071 90.377C585.06 87.9595 580.029 83.7781 574.998 79.7273C570.033 75.4804 565.002 72.475 559.252 69.9269Z" fill="#FFD683"/>
<path d="M532.661 283.509C530.244 245.549 529.264 212.097 536.32 177.992C539.914 160.744 549.191 144.671 559.122 136.047C566.963 129.186 580.03 122.13 591.072 119.713C602.897 117.099 608.647 114.486 622.955 120.562C633.932 125.201 650.462 136.112 655.819 145.52C661.699 155.974 665.032 165.121 668.037 176.751C676.857 211.052 672.741 247.183 668.56 282.399C623.021 282.268 577.547 283.509 532.661 283.509Z" fill="#FFA669"/>
<path d="M461.967 249.012L468.893 209.157L484.835 207.916L497.837 246.594C499.47 252.475 494.374 258.681 489.604 259.073L472.486 260.054C466.933 260.446 460.595 256.983 461.967 249.012Z" fill="#616BFF"/>
<path d="M468.704 209.68L471.709 196.94H484.253L484.776 208.765L468.704 209.68Z" fill="#434BBF"/>
<path d="M459.035 202.82L459.623 196.94H472.755L470.273 205.433L459.035 202.82Z" fill="#434BBF"/>
<path d="M456.813 200.664L456.944 198.899C457.009 198.246 457.532 197.789 458.185 197.854L459.492 197.985L459.165 202.036L457.858 201.905C457.205 201.84 456.748 201.317 456.813 200.664Z" fill="#434BBF"/>
<path d="M588.89 33.1341C599.348 34.783 606.252 51.6665 582.607 57.2009" stroke="#FFD683" stroke-width="1.17758" stroke-miterlimit="10" stroke-linecap="round"/>
<path d="M459.746 202.166C466.933 202.82 466.149 212.781 458.614 216.636" stroke="#434BBF" stroke-width="1.30671" stroke-miterlimit="10" stroke-linecap="round"/>
<path d="M464.974 236.468C415.319 135.851 398.659 215.56 407.773 243.981" stroke="#00236A" stroke-width="0.823676" stroke-miterlimit="10" stroke-linecap="round"/>
<rect x="373.177" y="243.328" width="77.0364" height="40.5081" rx="1.37279" fill="#4E85DD"/>
<path d="M558.207 69.3389C557.619 75.2844 557.293 80.8379 557.423 87.2408C557.554 93.6437 558.338 101.027 561.54 106.58C564.741 112.134 570.752 115.727 577.089 116.185C581.598 116.511 586.498 115.074 590.745 113.31C594.534 111.742 597.801 109.782 600.806 106.972C603.812 104.163 605.837 100.112 605.641 96.1918C607.732 97.6292 611.456 97.7599 613.743 96.6492C616.029 95.5384 617.728 93.5784 618.839 91.2916C620.342 88.2209 620.603 83.4514 619.166 80.3806C617.728 77.2445 613.089 75.6111 609.757 76.5911C607.993 77.1138 606.294 78.0938 605.118 79.5312C603.681 81.2953 603.55 82.6673 603.093 85.0194C601.264 82.2753 600.741 78.6818 601.852 75.5457C594.795 73.847 589.242 67.3788 588.262 60.2572C585.452 64.9614 578.984 68.7508 573.627 69.7309C568.204 70.7109 564.022 70.4496 558.207 69.3389Z" fill="#FFBA9B"/>
<path d="M575.718 125.266C576.698 129.186 580.488 132.78 584.277 134.217C588.916 135.916 596.56 136.308 602.245 133.368C607.929 130.428 611.522 125.266 613.025 121.738C613.809 119.974 614.136 117.622 614.136 117.622C614.136 117.622 612.437 117.165 611.849 117.034C599.37 114.486 583.297 120.039 575.718 125.266Z" fill="#FFBA9B"/>
<path d="M454.324 220.021C454.585 218.584 455.761 217.912 457.198 217.716C458.505 217.52 459.093 217.585 460.269 217.585C461.707 217.585 463.079 217.716 464.516 217.781C466.345 217.847 468.24 218.631 469.09 220.395C469.416 221.048 469.482 221.832 469.286 222.486C468.697 224.707 466.084 225.034 464.255 225.164C462.883 225.295 461.511 225.295 460.204 225.23C458.897 225.164 457.59 224.968 456.48 224.38C455.369 223.792 454.389 222.616 454.324 221.375C454.297 220.86 454.275 220.288 454.324 220.021Z" fill="#FFBA9B"/>
<path d="M455.174 207.458C455.37 206.021 455.697 205.564 457.003 204.78C457.918 204.257 458.702 204.322 459.551 204.322C460.597 204.322 461.642 204.453 462.753 204.518C464.125 204.584 465.562 205.368 466.15 207.132C466.412 207.785 466.477 208.569 466.346 209.222C465.889 211.444 463.994 211.77 462.557 211.901C461.512 212.032 460.532 212.032 459.486 211.966C458.506 211.901 457.526 211.705 456.742 211.117C455.893 210.529 455.174 209.353 455.174 208.112C455.109 207.85 455.109 207.654 455.174 207.458Z" fill="#FFBA9B"/>
<path d="M454.455 227.647C454.782 226.21 455.892 224.903 457.461 224.707C458.898 224.511 459.551 224.576 460.858 224.576C462.426 224.576 463.929 224.707 465.497 224.772C467.522 224.838 469.548 225.622 470.528 227.386C470.854 228.039 470.985 228.823 470.789 229.477C470.136 231.698 467.326 232.025 465.236 232.155C463.733 232.286 462.23 232.286 460.793 232.221C459.421 232.155 457.983 231.959 456.742 231.371C455.501 230.783 454.52 229.607 454.39 228.366C454.39 228.105 454.455 227.908 454.455 227.647Z" fill="#FFBA9B"/>
<path d="M455.043 235.03C455.304 233.593 456.284 232.286 457.591 232.09C458.767 231.894 459.355 231.959 460.466 231.959C461.773 231.959 463.079 232.09 464.386 232.155C466.085 232.221 467.849 233.005 468.633 234.769C468.894 235.422 469.025 236.206 468.829 236.859C468.306 239.081 465.889 239.408 464.19 239.538C462.949 239.669 461.707 239.669 460.4 239.604C459.224 239.538 458.048 239.342 457.003 238.754C455.958 238.166 455.108 236.99 455.043 235.749C455.043 235.422 455.043 235.226 455.043 235.03Z" fill="#FFBA9B"/>
<path d="M496.662 211.64C494.702 209.353 492.088 207.262 489.214 206.348C486.469 205.498 484.117 205.694 480.655 207.132C478.368 208.046 476.146 209.157 474.121 210.529C472.814 211.444 471.442 212.62 471.377 214.253C471.312 215.56 472.03 217.128 473.141 217.716C474.252 218.304 475.297 218.435 476.604 218.304C480.393 217.847 484.052 213.992 488.103 215.168C489.344 215.56 490.782 215.495 492.088 215.233C493.787 214.907 495.747 213.339 496.662 211.64Z" fill="#FFBA9B"/>
<path d="M640.008 282.398C643.406 265.934 647.979 243.328 651.965 223.923C652.161 223.139 652.03 222.29 651.769 221.506C647.26 210.464 640.923 199.618 634.977 189.034C628.836 178.057 624.393 165.578 626.026 153.099C626.941 145.912 631.319 138.529 638.048 136.046C642.948 134.282 645.823 134.74 650.331 137.353C654.839 139.967 660.393 146.762 663.464 150.943C676.531 168.584 695.478 199.945 693.91 224.315C692.734 242.609 687.507 263.712 684.567 282.072C669.671 282.137 658.956 282.398 640.008 282.398Z" fill="#F98D3D"/>
<path d="M574.255 82.3868C574.908 84.3467 575.749 87.8465 574.908 89.2469C573.928 90.8802 572.223 92.2983 572.621 93.4936C572.948 94.4736 574.923 95.574 575.888 95.7806" stroke="#00236A" stroke-width="1.18753" stroke-miterlimit="10" stroke-linecap="round"/>
<path d="M584.382 97.7405C582.833 100.8 579.105 102.479 575.894 101.581" stroke="#00236A" stroke-width="1.33213" stroke-miterlimit="10" stroke-linecap="round"/>
<path d="M609.444 88.7537C609.538 86.0923 611.618 83.6935 614.174 83.2801" stroke="#00236A" stroke-width="1.33213" stroke-miterlimit="10" stroke-linecap="round"/>
<path d="M588.726 82.3083C589.112 82.3095 589.433 81.9943 589.358 81.6155C589.224 80.9466 588.897 80.326 588.408 79.835C587.755 79.1774 586.866 78.8064 585.939 78.8037C585.012 78.8009 584.121 79.1667 583.464 79.8204C582.973 80.3085 582.642 80.9272 582.504 81.5953C582.426 81.9736 582.746 82.2907 583.132 82.2918V82.2918C583.518 82.2929 583.821 81.9723 583.949 81.6078C584.052 81.3109 584.223 81.0382 584.45 80.8123C584.844 80.42 585.379 80.2006 585.935 80.2022C586.491 80.2039 587.024 80.4265 587.417 80.821C587.643 81.0483 587.811 81.322 587.913 81.6195C588.039 81.9848 588.34 82.3072 588.726 82.3083V82.3083Z" fill="#00236A"/>
<path d="M570.905 84.3168C571.286 84.2542 571.55 83.8904 571.413 83.5293C571.171 82.8916 570.746 82.3335 570.184 81.9298C569.43 81.389 568.493 81.1696 567.578 81.3198C566.663 81.4701 565.845 81.9777 565.304 82.731C564.901 83.2933 564.676 83.9582 564.651 84.6398C564.636 85.0258 565.003 85.2859 565.384 85.2233V85.2233C565.765 85.1607 566.012 84.7945 566.077 84.4139C566.131 84.1039 566.253 83.807 566.44 83.5466C566.765 83.0946 567.256 82.7901 567.805 82.6999C568.354 82.6098 568.916 82.7414 569.368 83.0659C569.628 83.2528 569.84 83.4949 569.989 83.7715C570.173 84.1111 570.524 84.3794 570.905 84.3168V84.3168Z" fill="#00236A"/>
<rect x="561.998" y="74.2182" width="8.02174" height="2.61343" rx="1.30671" transform="rotate(-9.36391 561.998 74.2182)" fill="#FFD683"/>
<rect x="581.083" y="71.2022" width="8.49773" height="2.61343" rx="1.30671" transform="rotate(-2.43203 581.083 71.2022)" fill="#FFD683"/>
<path d="M584.865 115.597C590.745 114.617 602.506 111.35 605.772 96.6493" stroke="#00236A" stroke-width="1.33213" stroke-miterlimit="10" stroke-linecap="round"/>
</g>
<defs>
<clipPath id="clip0_52_363">
<rect width="694" height="270" fill="white"/>
</clipPath>
</defs>
</svg>
