<svg width="1402" height="1278" fill="none" xmlns="http://www.w3.org/2000/svg"><g filter="url(#a)"><path d="M385.324 783.719c-68.412-55.049-65.05-130.453-54.818-161.275 14.034-59.349 59.934-76.336 81.13-77.411 28.506 6.809 105.908 8.601 187.477-38.706 101.961-59.134 224.752-54.834 256.546-70.961 31.795-16.128 191.861-37.631 241.201 24.729 49.33 62.359-50.43 130.094-103.06 140.846-52.625 10.752-111.828 48.382-190.765 139.771-63.15 73.111-135.217 107.158-163.357 115.043-116.652 18.063-218.174-40.498-254.354-72.036Z" fill="url(#b)"/></g><defs><linearGradient id="b" x1="926.85" y1="453.61" x2="511.447" y2="755.904" gradientUnits="userSpaceOnUse"><stop stop-color="#9760FF"/><stop offset=".495" stop-color="#FF9E34" stop-opacity=".8"/><stop offset="1" stop-color="#FFD525" stop-opacity=".7"/></linearGradient><filter id="a" x="-92.972" y=".411" width="1621.02" height="1276.61" filterUnits="userSpaceOnUse" color-interpolation-filters="sRGB"><feFlood flood-opacity="0" result="BackgroundImageFix"/><feBlend in="SourceGraphic" in2="BackgroundImageFix" result="shape"/><feGaussianBlur stdDeviation="208.937" result="effect1_foregroundBlur_6297_4318"/></filter></defs></svg>